<svg id="Layer_1" data-name="Layer 1" xmlns="http://www.w3.org/2000/svg" viewBox="0 0 1287.53 355.35"><defs><style>.cls-1{fill:#071c36;}</style></defs><path class="cls-1" d="M351.56,222.69a.92.92,0,0,0-.91-.62H329.38a3.28,3.28,0,0,0-3.63,3.63v1c0,13.41-4.46,22.28-13.28,26.36-7.4,3.71-19.05,5.58-34.61,5.58H200.41c-26.93,0-44.44-4.4-52-13-3-3.88-5.39-10.55-7-19.83s-2.49-21.43-2.49-35.95c0-13.51.11-24.74.33-33.39s.77-14.93,1.66-18.68c2.39-13.49,7.77-22.85,16-27.8,4.58-2.4,11-4.39,18.94-5.93s18.22-2.31,30.29-2.31h71.8c31.56,0,47.56,10.86,47.56,32.27v.67a3.27,3.27,0,0,0,3.62,3.62H350c2.13,0,3.3-1.29,3.3-3.62V134c0-20.27-6.4-35.64-19-45.7s-31.56-15.09-56.4-15.09h-69.8c-37.23,0-63,6.77-76.56,20.12l-1.1,1.09h.37C117.67,108.23,111,133.83,111,170.52c0,32.24,1,54.09,3,64.94,1.78,9.12,4.77,17,8.9,23.32a56.06,56.06,0,0,0,15.65,16c6.91,4.24,15.76,7.34,26.31,9.23s23.23,2.83,37.84,2.83h75.45c23.95,0,42.07-3.95,53.88-11.75,14.29-10.27,21.54-26.88,21.54-49.37a2.47,2.47,0,0,0-.57-1.83Z"/><path class="cls-1" d="M686,75.16h-45.2A3.81,3.81,0,0,0,638,76L538.11,246.7,441.27,75.82l-.1-.18-.17-.08a4.51,4.51,0,0,0-1.94-.4H391.19c-2.33,0-3.62,1.41-3.62,4V283.2a3.26,3.26,0,0,0,3.62,3.62H412.8a3.26,3.26,0,0,0,3.62-3.62V98.7h5L528.67,286.34l.17.08a3.53,3.53,0,0,0,1.62.4h14.29a3.79,3.79,0,0,0,2.78-.85L655.8,98.7h5.31V283.2a3.27,3.27,0,0,0,3.63,3.62H686c1.11,0,3-.47,3-3.62V79.12C689,75.68,687.12,75.16,686,75.16Z"/><path class="cls-1" d="M965,183.37a1.59,1.59,0,0,0-1.1-.52H843.22c-2.55,0-4,1.41-4,4v20.61c0,2.55,1.4,4,4,4H938c0,9.58-.81,17.53-2.31,23.65s-3.6,10.86-6.17,13.85c-5.83,6.48-18.64,9.76-38.08,9.76H814.31c-26.94,0-44.45-4.4-52-13-6.53-8.26-9.84-27-9.84-55.78,0-27.31.67-44.83,2-52.07,2.39-13.49,7.77-22.85,15.95-27.8,4.58-2.4,11-4.39,19.11-5.93s18.38-2.31,30.46-2.31h71.46a103.39,103.39,0,0,1,19.65,1.65,61.16,61.16,0,0,1,14,4.26,22.48,22.48,0,0,1,10.51,10.67A43.22,43.22,0,0,1,939,134.63a3.27,3.27,0,0,0,3.62,3.62h20.94c2.13,0,3.3-1.29,3.3-3.62V134c0-20.27-6.4-35.64-19-45.7s-31.56-15.09-56.4-15.09H822c-37.45,0-63.32,6.77-76.89,20.12L744,94.38h.37c-12.87,13.65-19.4,39.25-19.4,76.14,0,16.4.22,30,.66,40.58a227.94,227.94,0,0,0,2,24.36,63.88,63.88,0,0,0,9.07,23.33,57.82,57.82,0,0,0,15.82,16c6.9,4.24,15.75,7.34,26.31,9.23s23.23,2.83,37.83,2.83h74.79a157.31,157.31,0,0,0,31-2.67c8.68-1.78,15.91-4.61,21.51-8.41,10.95-7.82,17.85-19.59,20.53-35a163.09,163.09,0,0,0,2-20.69c.44-9.1.67-20.29.67-33.27a2.48,2.48,0,0,0-.52-1.78Z"/><path class="cls-1" d="M1210.16,75.16H993.78c-2.55,0-3.95,1.41-3.95,4v20.94c0,2.55,1.4,4,3.95,4h94.1V283.2c0,2.34,1.17,3.62,3.29,3.62h20.94a3.27,3.27,0,0,0,3.63-3.62V104h94.42c2.55,0,4-1.41,4-4V79.12C1214.12,76.57,1212.71,75.16,1210.16,75.16Z"/></svg>